<svg xmlns="http://www.w3.org/2000/svg" viewBox="0 0 120 120" fill="currentColor">
  <path d="M37.2 58.7c-1.3 0-2.4-1.1-2.4-2.4s1.1-2.4 2.4-2.4 2.4 1.1 2.4 2.4-1.1 2.4-2.4 2.4zm0-3.5c-.6 0-1.1.5-1.1 1.1s.5 1.1 1.1 1.1 1.1-.5 1.1-1.1-.5-1.1-1.1-1.1z"/>
  <path d="M82.8 58.7c-1.3 0-2.4-1.1-2.4-2.4s1.1-2.4 2.4-2.4 2.4 1.1 2.4 2.4-1.1 2.4-2.4 2.4zm0-3.5c-.6 0-1.1.5-1.1 1.1s.5 1.1 1.1 1.1 1.1-.5 1.1-1.1-.5-1.1-1.1-1.1z"/>
  <path d="M60 100c-22.1 0-40-17.9-40-40S37.9 20 60 20s40 17.9 40 40-17.9 40-40 40zm0-76c-19.9 0-36 16.1-36 36s16.1 36 36 36 36-16.1 36-36-16.1-36-36-36z"/>
  <path d="M60 85c-10.5 0-19.5-6.5-23.1-15.7-.3-.8.1-1.7.9-2s1.7.1 2 .9C43 76.5 50.9 82 60 82s17-5.5 20.2-13.8c.3-.8 1.2-1.2 2-.9s1.2 1.2.9 2C79.5 78.5 70.5 85 60 85z"/>
  <path d="M44.5 52c-2.5 0-4.5-2-4.5-4.5S42 43 44.5 43 49 45 49 47.5 47 52 44.5 52z"/>
  <path d="M75.5 52c-2.5 0-4.5-2-4.5-4.5S73 43 75.5 43 80 45 80 47.5 78 52 75.5 52z"/>
</svg>
